<svg width="13" height="13" viewBox="0 0 13 13" fill="none" xmlns="http://www.w3.org/2000/svg">
<path fill-rule="evenodd" clip-rule="evenodd" d="M0.57218 12.4685C1.00175 12.9013 1.69823 12.9013 2.1278 12.4685L6.24997 8.31555L10.3722 12.4685C10.8017 12.9013 11.4982 12.9013 11.9278 12.4685C12.3573 12.0357 12.3573 11.3341 11.9278 10.9013L7.8056 6.74831L11.8388 2.68495C12.2684 2.25217 12.2684 1.55049 11.8388 1.11771C11.4093 0.684926 10.7128 0.684925 10.2832 1.11771L6.24997 5.18107L2.21675 1.11772C1.78718 0.684935 1.0907 0.684935 0.661128 1.11772C0.231554 1.5505 0.231554 2.25218 0.661127 2.68496L4.69435 6.74831L0.57218 10.9013C0.142607 11.3341 0.142607 12.0357 0.57218 12.4685Z" fill="#0E2CE2"/>
</svg>
