<svg width="66" height="50" viewBox="0 0 66 50" fill="none" xmlns="http://www.w3.org/2000/svg">
<path d="M30.4044 16.0336C14.7144 13.0639 1.96228 13.7332 1.05187 17.8272C0.322258 21.0958 7.35368 25.6317 18.0784 29.3942C20.674 26.106 23.741 22.6359 27.176 19.1723C28.2543 18.0871 29.3325 17.0409 30.4044 16.0336Z" stroke="#E7E8ED" stroke-width="1.6" stroke-miterlimit="10"/>
<path d="M52.5638 14.201C56.3927 8.20306 57.91 3.50477 56.1538 1.73073C53.2095 -1.2325 42.078 5.07087 30.4042 16.0335C31.8505 16.3065 33.3162 16.6119 34.8012 16.9433C39.5405 18.0155 43.9828 19.2892 47.9214 20.6733" stroke="#E7E8ED" stroke-width="1.6" stroke-miterlimit="10" stroke-linecap="round"/>
<path d="M18.0792 29.3942C11.022 38.3489 7.49659 45.9714 9.85331 48.3368C12.5135 51.0141 21.8565 46.1274 32.2519 37.0687C33.653 35.847 33.059 33.5401 31.2511 33.1307C31.2381 33.1307 31.2188 33.1242 31.2059 33.1177C26.4666 32.0455 22.0243 30.7718 18.0857 29.3877L18.0792 29.3942Z" stroke="#E7E8ED" stroke-width="1.6" stroke-miterlimit="10"/>
<path d="M47.9216 20.6733C58.6464 24.4359 65.6778 28.9717 64.9482 32.2404C64.2508 35.3661 56.6383 36.4968 46.075 35.5285" stroke="#E7E8ED" stroke-width="1.6" stroke-miterlimit="10" stroke-linecap="round"/>
<path d="M39.3707 35.8742C40.5246 35.8742 41.4601 34.9327 41.4601 33.7713C41.4601 32.6099 40.5246 31.6685 39.3707 31.6685C38.2167 31.6685 37.2812 32.6099 37.2812 33.7713C37.2812 34.9327 38.2167 35.8742 39.3707 35.8742Z" stroke="#E7E8ED" stroke-width="1.6" stroke-miterlimit="10"/>
</svg>
