<svg width="76" height="76" viewBox="0 0 76 76" fill="none" xmlns="http://www.w3.org/2000/svg">
<path d="M35.4044 29.0335C19.7144 26.0638 6.96228 26.7331 6.05187 30.827C5.32226 34.0957 12.3537 38.6315 23.0784 42.3941C25.674 39.1059 28.741 35.6358 32.176 32.1722C33.2543 31.087 34.3325 30.0407 35.4044 29.0335Z" stroke="#0E2CE2" stroke-width="2.2" stroke-miterlimit="10"/>
<path d="M57.5638 27.201C61.3927 21.2031 62.91 16.5048 61.1538 14.7307C58.2095 11.7675 47.078 18.0709 35.4042 29.0335C36.8505 29.3065 38.3162 29.6119 39.8012 29.9433C44.5405 31.0155 48.9828 32.2892 52.9214 33.6733" stroke="#0E2CE2" stroke-width="2.2" stroke-miterlimit="10" stroke-linecap="round"/>
<path d="M23.0792 42.3941C16.022 51.3488 12.4966 58.9714 14.8533 61.3367C17.5135 64.0141 26.8565 59.1273 37.2519 50.0687C38.653 48.847 38.059 46.5401 36.2511 46.1307C36.2381 46.1307 36.2188 46.1242 36.2059 46.1177C31.4666 45.0454 27.0243 43.7718 23.0857 42.3876L23.0792 42.3941Z" stroke="#0E2CE2" stroke-width="2.2" stroke-miterlimit="10"/>
<path d="M52.9216 33.6733C63.6464 37.4358 70.6778 41.9717 69.9482 45.2403C69.2508 48.366 61.6383 49.4967 51.075 48.5285" stroke="#0E2CE2" stroke-width="2.2" stroke-miterlimit="10" stroke-linecap="round"/>
<path d="M44.3707 48.8742C45.5246 48.8742 46.4601 47.9327 46.4601 46.7713C46.4601 45.61 45.5246 44.6685 44.3707 44.6685C43.2167 44.6685 42.2812 45.61 42.2812 46.7713C42.2812 47.9327 43.2167 48.8742 44.3707 48.8742Z" stroke="#0E2CE2" stroke-width="2.2" stroke-miterlimit="10"/>
</svg>
