<?xml version="1.0" encoding="UTF-8"?>
<svg id="Layer_1" xmlns="http://www.w3.org/2000/svg" version="1.1" viewBox="0 0 66 50">
  <!-- Generator: Adobe Illustrator 29.4.0, SVG Export Plug-In . SVG Version: 2.1.0 Build 152)  -->
  <defs>
    <style>
      .st0 {
        fill: #e7e8ed;
      }
    </style>
  </defs>
  <path class="st0" d="M48.19,19.92s0,0,0,0c-4.07-1.43-8.51-2.69-13.21-3.76-.98-.22-1.94-.42-2.87-.61C43.99,4.66,53.47.17,55.58,2.29c1.07,1.08.66,4.66-3.7,11.48-.24.37-.13.87.24,1.1.37.24.87.13,1.1-.24,3.01-4.71,6.05-10.87,3.48-13.46-3.83-3.85-16.39,4.51-26.57,14.01C16.51,12.64,1.45,12.34.27,17.65c-1.13,5.08,11.23,10.19,16.5,12.12-3.43,4.47-11.15,15.44-7.48,19.13.66.66,1.57.96,2.67.96,4.97,0,13.81-6.08,20.82-12.19.87-.76,1.24-1.94.95-3.07-.28-1.12-1.14-1.97-2.25-2.24l-.09-.02c-4.23-.96-8.23-2.08-11.95-3.34,2.5-3.09,5.28-6.2,8.31-9.26.94-.95,1.92-1.9,2.91-2.84,1.26.24,2.59.52,3.97.82,4.64,1.05,9.02,2.3,13.03,3.7,0,0,0,0,0,0,12.03,4.22,16.99,8.47,16.51,10.64-.45,2.04-6.29,3.74-18.02,2.67-.45-.04-.83.28-.87.72s.28.83.72.87c1.77.16,4.3.34,6.97.34,5.69,0,11.99-.8,12.76-4.25,1.22-5.46-13.12-10.94-17.54-12.49ZM31.15,33.93c.51.14.9.54,1.03,1.07.14.55-.03,1.1-.45,1.47-11.33,9.87-19.43,13.19-21.31,11.31-1.54-1.54.31-7.65,7.94-17.44,3.9,1.35,8.14,2.54,12.6,3.55l.19.05ZM26.61,18.61c-3.22,3.25-6.18,6.56-8.8,9.84C6.16,24.29,1.36,20.13,1.83,18c.4-1.81,4.5-3,11.29-3,4.23,0,9.51.47,15.6,1.54-.72.69-1.42,1.38-2.11,2.07Z"/>
  <path class="st0" d="M39.37,30.87c-1.59,0-2.89,1.3-2.89,2.9s1.3,2.9,2.89,2.9,2.89-1.3,2.89-2.9-1.3-2.9-2.89-2.9ZM39.37,35.07c-.71,0-1.29-.58-1.29-1.3s.58-1.3,1.29-1.3,1.29.58,1.29,1.3-.58,1.3-1.29,1.3Z"/>
</svg>