<svg width="44" height="44" viewBox="0 0 44 44" fill="none" xmlns="http://www.w3.org/2000/svg">
<g clip-path="url(#clip0_745_171)">
<g clip-path="url(#clip1_745_171)">
<path d="M10.5586 23.7598C12.0166 23.7598 13.1992 24.9424 13.1992 26.4004C13.1995 33.2042 18.7148 38.7195 25.5186 38.7197C26.9766 38.7197 28.1592 39.9023 28.1592 41.3604C28.1589 42.8182 26.9764 44 25.5186 44C15.7987 43.9998 7.91919 36.1203 7.91895 26.4004C7.91895 24.9425 9.10074 23.76 10.5586 23.7598ZM41.3604 15.8398C42.8181 15.84 43.9998 17.0217 44 18.4795C44 28.1997 36.1205 36.0799 26.4004 36.0801C24.9425 36.0801 23.76 34.8982 23.7598 33.4404C23.7598 31.9824 24.9424 30.7998 26.4004 30.7998C33.2044 30.7997 38.7197 25.2836 38.7197 18.4795C38.72 17.0217 39.9025 15.8398 41.3604 15.8398ZM17.5996 7.91992C19.0575 7.91992 20.24 9.10174 20.2402 10.5596C20.2402 12.0176 19.0576 13.2002 17.5996 13.2002C10.7958 13.2004 5.28053 18.7157 5.28027 25.5195C5.28027 26.9776 4.09768 28.1602 2.63965 28.1602C1.18178 28.16 6.37276e-08 26.9774 0 25.5195C0.000253557 15.7996 7.87973 7.92013 17.5996 7.91992ZM18.4814 0C28.2014 0.000162134 36.0808 7.87968 36.0811 17.5996C36.0811 19.0576 34.8993 20.2401 33.4414 20.2402C31.9834 20.2402 30.8008 19.0576 30.8008 17.5996C30.8006 10.7957 25.2854 5.28044 18.4814 5.28027C17.0234 5.28027 15.8408 4.09768 15.8408 2.63965C15.841 1.18178 17.0235 0 18.4814 0Z" fill="#E7E8ED"/>
</g>
</g>
<defs>
<clipPath id="clip0_745_171">
<rect width="44" height="44" fill="white"/>
</clipPath>
<clipPath id="clip1_745_171">
<rect width="44" height="44" fill="white"/>
</clipPath>
</defs>
</svg>
