<svg width="40" height="40" viewBox="0 0 40 40" fill="none" xmlns="http://www.w3.org/2000/svg">
<g clip-path="url(#clip0_730_182)">
<path d="M0 39.0476C0 26.0322 0 13.0154 0 0C13.2279 0 26.4572 0 39.685 0C39.685 13.0154 39.685 26.0322 39.685 39.0476C26.4572 39.0476 13.2279 39.0476 0 39.0476ZM17.1935 23.7186C17.4643 22.4663 17.7364 21.2545 17.9872 20.0384C18.2594 18.7247 18.5754 17.4152 18.7512 16.0876C18.8731 15.1644 18.3033 14.5327 17.5025 14.4462C16.5968 14.3472 15.891 14.8451 15.6954 15.7362C15.283 17.6133 14.8762 19.4903 14.4709 21.3688C13.7679 24.6279 13.0592 27.8856 12.3718 31.1488C12.1805 32.0581 12.7049 32.8251 13.6035 33.051C14.3178 33.2309 15.1597 32.6787 15.3992 31.8433C15.558 31.2869 15.6898 30.7221 15.8017 30.1559C16.2539 27.887 17.5507 26.7685 19.885 26.703C21.4852 26.6584 23.0017 26.3111 24.4573 25.6557C28.9105 23.6489 31.4787 18.6229 30.454 13.8912C29.3258 8.67973 24.3454 4.78054 18.6123 5.51129C14.2228 6.07051 11.2734 8.41895 9.6874 12.4381C8.77606 14.7488 8.80299 17.1001 9.59669 19.4499C9.83764 20.1611 10.355 20.5098 11.075 20.5349C11.7723 20.56 12.3676 20.2476 12.5575 19.5768C12.6822 19.1375 12.651 18.602 12.5206 18.1557C11.914 16.0751 12.2088 14.1366 13.2633 12.2596C14.8946 9.3533 18.9326 7.78861 22.1202 8.85405C25.988 10.1468 28.3691 14.1227 27.1545 18.0986C26.3268 20.8082 24.5013 22.5695 21.7431 23.2668C20.4109 23.6029 18.9978 23.6294 17.6202 23.7884C17.5124 23.8009 17.3976 23.7549 17.1935 23.72V23.7186ZM18.3657 31.5003C18.3713 32.5629 19.1608 33.3536 20.2266 33.3676C21.2683 33.3815 22.1598 32.482 22.1329 31.4459C22.106 30.3763 21.3123 29.6344 20.211 29.6483C19.1013 29.6622 18.3586 30.4069 18.3643 31.5017L18.3657 31.5003Z" fill="#0E2CE2"/>
</g>
<defs>
<clipPath id="clip0_730_182">
<rect width="39.685" height="39.0476" rx="19.5238" fill="white"/>
</clipPath>
</defs>
</svg>
