<svg width="40" height="40" viewBox="0 0 40 40" fill="none" xmlns="http://www.w3.org/2000/svg">
<path d="M0 19.9785C6.64584 13.3309 13.3147 6.65902 19.972 0C26.6624 6.68053 33.3427 13.351 40 19.9986C33.347 26.6533 26.6782 33.3238 20.0036 40C13.3319 33.3209 6.6602 26.6461 0 19.9785ZM11.6324 9.70162C11.595 9.74609 11.5663 9.78626 11.5318 9.82069C10.1541 11.1964 8.77635 12.5721 7.39863 13.9478C7.3699 13.9765 7.33829 14.0052 7.31243 14.0353C6.38006 15.104 5.61721 16.276 5.13594 17.6173C4.71214 18.8022 4.5814 20.0129 4.8285 21.2566C5.00234 22.136 5.32414 22.9594 5.75513 23.7426C6.2795 24.6952 6.91305 25.5659 7.68883 26.3334C8.98754 27.6187 10.2776 28.9141 11.5706 30.2051C11.6022 30.2367 11.6352 30.2668 11.6712 30.3012C11.9025 30.0875 12.1251 29.8752 12.355 29.6715C13.5373 28.6186 14.8159 27.7076 16.2655 27.0506C17.1591 26.6461 18.0886 26.3649 19.064 26.2444C19.2321 26.2244 19.4016 26.2157 19.5884 26.2C19.5669 26.2358 19.5625 26.2459 19.5554 26.2545C18.8342 27.0736 18.2222 27.9659 17.7495 28.9499C17.3659 29.7475 17.0987 30.581 16.9939 31.4632C16.8775 32.4473 16.9982 33.407 17.3042 34.3451C17.7308 35.6577 18.4348 36.8125 19.3126 37.8683C19.5295 38.1294 19.7651 38.3747 19.9993 38.6358C20.1027 38.5268 20.1904 38.4364 20.278 38.3431C21.2606 37.2888 22.0422 36.1053 22.5622 34.7583C23.1383 33.2678 23.2259 31.7558 22.7547 30.218C22.387 29.0159 21.7793 27.9415 21.0222 26.9459C20.834 26.6992 20.6328 26.4625 20.4375 26.2201C20.4489 26.2129 20.4561 26.2043 20.4619 26.2057C20.5481 26.21 20.6343 26.2114 20.7205 26.2201C21.8899 26.3319 22.9903 26.6791 24.042 27.1898C25.434 27.8654 26.6667 28.7706 27.8074 29.8078C27.9855 29.9699 28.1608 30.1363 28.3518 30.3142C28.3906 30.2668 28.4194 30.2267 28.4538 30.1922C29.8071 28.8395 31.1619 27.4867 32.5166 26.134C32.6071 26.0436 32.7034 25.959 32.7867 25.8629C33.7133 24.7884 34.4632 23.6092 34.9258 22.2608C35.2965 21.1806 35.4215 20.0775 35.2333 18.9442C35.0824 18.0448 34.775 17.1984 34.3483 16.3965C33.8455 15.4512 33.2435 14.5775 32.4821 13.8187C31.1432 12.4846 29.8071 11.149 28.4725 9.81351C28.438 9.77909 28.4165 9.73175 28.3863 9.68727C28.326 9.74179 28.2944 9.76761 28.2656 9.79486C27.3663 10.6627 26.4038 11.4517 25.3421 12.1173C24.0376 12.9365 22.6484 13.5461 21.1098 13.7642C20.8886 13.7957 20.6659 13.8129 20.4102 13.8402C20.4518 13.7871 20.4676 13.7642 20.4849 13.7441C21.2032 12.9221 21.8137 12.0284 22.2806 11.0415C22.6915 10.1721 22.9688 9.26553 23.0421 8.30297C23.1182 7.30742 22.953 6.34486 22.6125 5.41099C22.1269 4.08119 21.3698 2.91493 20.4375 1.85626C20.2952 1.69416 20.1516 1.53206 20.0122 1.37283C19.9935 1.38144 19.9892 1.38287 19.9864 1.38431C19.9318 1.44599 19.8772 1.50767 19.8226 1.56792C19.008 2.46306 18.2969 3.43136 17.7696 4.52446C17.3789 5.33352 17.1016 6.17558 16.9939 7.06929C16.8631 8.15665 17.0212 9.20815 17.3932 10.2324C17.8515 11.4962 18.5612 12.6108 19.4275 13.6308C19.4778 13.691 19.5295 13.7498 19.6013 13.8345C19.4131 13.8187 19.2609 13.8101 19.11 13.7929C17.9909 13.6609 16.9364 13.3166 15.9279 12.8231C14.7111 12.2278 13.6149 11.456 12.5935 10.5709C12.2745 10.2941 11.9657 10.0043 11.6324 9.70162ZM31.8069 13.9851C31.5842 14.0095 31.3601 14.0252 31.1389 14.0582C29.8603 14.2419 28.6751 14.6952 27.5559 15.3278C25.4901 16.4969 23.7747 18.072 22.2821 19.901C22.2174 19.9813 22.2347 20.0287 22.2921 20.099C23.6282 21.7472 25.1625 23.1789 26.9626 24.3121C28.2441 25.1198 29.6146 25.7108 31.1274 25.9303C31.3529 25.9633 31.5799 25.9819 31.8069 26.0063C31.7882 25.9403 31.7595 25.903 31.7279 25.8672C30.8516 24.8444 30.1333 23.7269 29.6606 22.4602C29.0974 20.9468 29.0414 19.4233 29.5414 17.8827C29.9781 16.5385 30.7007 15.3579 31.6 14.2777C31.6719 14.1902 31.7451 14.1041 31.8184 14.0181C31.8141 14.008 31.8098 13.998 31.8055 13.988L31.8069 13.9851ZM17.7222 19.8867C16.4278 18.2872 14.9424 16.8928 13.2098 15.7739C11.8838 14.9189 10.4644 14.2878 8.88841 14.0597C8.66286 14.0267 8.43587 14.0095 8.17441 13.9822C8.229 14.0482 8.25773 14.0826 8.28503 14.1156C9.08379 15.0438 9.75039 16.0551 10.2259 17.1884C10.9112 18.8194 11.0247 20.4777 10.463 22.169C10.0162 23.5131 9.28348 24.6937 8.37554 25.7725C8.31663 25.8428 8.25773 25.9131 8.18303 26.002C8.74331 25.9733 9.26481 25.8887 9.78056 25.7581C11.1985 25.3995 12.4742 24.7396 13.6709 23.9134C14.8504 23.0986 15.9106 22.1446 16.8789 21.0902C17.2007 20.7402 17.5039 20.373 17.817 20.0115C17.7783 19.9598 17.7524 19.9225 17.7237 19.8881L17.7222 19.8867Z" fill="#0E2CE2"/>
</svg>
