<svg width="44" height="44" viewBox="0 0 44 44" fill="none" xmlns="http://www.w3.org/2000/svg">
<path d="M31.0707 35C29.4724 34.5239 27.9005 34.4995 26.3313 35C26.3207 34.9892 26.3102 34.9811 26.2969 34.9702C26.3392 34.881 26.3683 34.7836 26.4264 34.7051C26.5955 34.4752 26.8332 34.3372 27.0816 34.2209C27.1899 34.1695 27.1952 34.1181 27.1503 34.0234C27.0155 33.7367 26.8227 33.4905 26.5849 33.2903C26.1966 32.963 25.795 32.6464 25.3855 32.3435C24.4582 31.6617 23.8929 30.7555 23.7106 29.6031C23.7027 29.5598 23.6947 29.5192 23.6842 29.4624C22.7278 29.4002 21.7715 29.3379 20.8151 29.273C20.8151 29.2676 20.8125 29.2595 20.8099 29.2541C21.3541 29.0891 21.9009 28.924 22.4716 28.7509C22.1651 28.5967 21.8666 28.5453 21.5601 28.5183C20.6751 28.4425 19.8033 28.5642 18.9368 28.7157C16.8656 29.0809 14.8499 29.668 12.8474 30.3037C10.2293 31.1342 7.6456 32.0729 5.08566 33.0793C5.02754 33.1009 4.96942 33.1226 4.89545 33.1523V32.7682C4.45162 33.0414 3.9893 33.201 3.49528 33.2632C3.0039 33.3255 2.51516 33.3065 2 33.1929C2.59705 32.7276 3.17033 32.2812 3.77531 31.8105H2.60234C2.60234 31.8105 2.59705 31.7916 2.59441 31.7808C6.68661 29.622 10.7788 27.4632 14.8737 25.3071C14.8737 25.2936 14.8684 25.2801 14.8684 25.2666H12.2001C12.2001 25.2666 12.1948 25.2422 12.1922 25.2287C12.216 25.2098 12.2371 25.1881 12.2609 25.1719C16.4799 22.4288 20.7015 19.6857 24.9205 16.9425C26.4739 15.9335 28.1172 15.103 29.8079 14.3699C30.3654 14.1264 30.8303 13.7612 31.2768 13.3527C31.9399 12.7467 32.5977 12.1326 33.2846 11.5618C33.9134 11.0397 34.6134 10.6285 35.3584 10.2958C36.4125 9.82507 37.4376 9.9414 38.4388 10.4662C38.9487 10.734 39.3872 11.1101 39.8231 11.4834C40.5259 12.0867 41.2207 12.7034 41.9181 13.3121C41.934 13.3256 41.9551 13.3311 42 13.3527C41.6751 13.4826 41.3897 13.5935 41.1097 13.7125C40.6897 13.891 40.2775 14.0831 39.8575 14.259C39.0887 14.5809 38.5286 15.1463 38.0795 15.8442C37.6912 16.4475 37.4428 17.1184 37.1866 17.7866C36.8379 18.7064 36.4786 19.6207 36.1404 20.5432C35.6358 21.9202 34.7693 22.9969 33.6095 23.8517C32.6585 24.5524 31.6334 25.1232 30.5952 25.6696C29.7049 26.1376 28.8173 26.6165 27.9375 27.1061C27.6628 27.2576 27.4092 27.4551 27.1582 27.6445C26.5664 28.0935 26.3102 28.7239 26.2467 29.4516C26.1649 30.4065 26.4422 31.2424 27.0499 31.9701C27.5914 32.6167 28.1674 33.2227 28.8675 33.6961C29.1845 33.9098 29.5279 34.0613 29.8898 34.1884C30.1778 34.2885 30.4525 34.4265 30.722 34.5699C30.8752 34.651 30.9968 34.7863 31.0813 34.9946L31.0707 35Z" fill="#0E2CE2"/>
</svg>
