<svg width="44" height="44" viewBox="0 0 44 44" fill="none" xmlns="http://www.w3.org/2000/svg">
<path d="M12.8889 40.819C13.7688 40.518 14.6487 40.2169 15.5286 39.9158C15.5286 39.8112 15.5267 39.7066 15.5248 39.6001C12.8851 39.1522 10.2435 38.7024 7.60378 38.2545C7.59434 38.126 7.58301 37.9994 7.57357 37.8709C8.53467 37.5386 9.49577 37.2063 10.4569 36.8759C10.4606 36.7731 10.4644 36.6703 10.4701 36.5693C8.63286 36.1196 6.79563 35.6698 4.95839 35.2201L4.93574 34.897C5.65326 34.5427 6.37078 34.1884 7.0883 33.8341C7.09774 33.7497 7.10529 33.6652 7.11473 33.5808C5.88551 33.1072 4.65817 32.6317 3.31376 32.1141C3.61587 31.7781 3.7405 31.6019 3.90099 31.4679C4.79978 30.7299 4.813 30.5757 3.8368 29.9957C3.12683 29.5734 2.6831 29.2063 2.83227 28.2022C2.95311 27.3963 2.4263 26.5151 2.27713 25.6542C0.353043 14.5298 8.6744 4.0497 20.2076 3.08412C26.3858 2.56644 31.7502 4.44071 36.1554 8.63714C39.7317 12.0461 41.8125 16.2517 41.99 21.164C42.0656 23.2696 41.6936 25.3917 41.5048 27.5046C41.484 27.7377 41.399 28.0186 41.2385 28.1765C40.5852 28.8208 40.1452 29.4394 40.9779 30.271C41.027 30.3206 40.7023 30.8823 40.4455 31.031C39.7676 31.4257 39.0331 31.7231 38.1097 32.16C38.8952 32.6648 39.4523 33.0209 40.0074 33.3789C40.0206 33.4872 40.0338 33.5955 40.0471 33.7038C38.5403 34.1462 37.0316 34.5868 35.5248 35.0292C35.5097 35.1265 35.4946 35.2238 35.4795 35.3229C36.3254 35.6735 37.1713 36.0241 38.0172 36.3729C38.0229 36.4922 38.0304 36.6134 38.0361 36.7327C35.8269 37.1843 33.6158 37.6377 31.4066 38.0893L31.416 38.3849C32.4281 38.7043 33.4383 39.0255 34.4504 39.3449C34.4466 39.4386 34.4428 39.534 34.4391 39.6276C33.9764 39.747 33.5214 39.9158 33.0512 39.9801C30.7552 40.2885 28.4496 40.54 26.1574 40.8759C25.3001 41.0026 24.3673 40.9438 23.6989 41.7681C23.4893 42.0269 22.8077 42.0159 22.3526 41.9829C19.4788 41.7736 16.6068 41.5294 13.7367 41.2798C13.4535 41.2559 13.1797 41.1201 12.9002 41.0356L12.8889 40.819ZM12.819 34.93C13.4402 35.143 13.8292 35.3229 14.2371 35.4055C15.1566 35.5927 16.0819 35.7616 17.0127 35.8809C19.6185 36.215 22.2204 36.5895 24.8375 36.7988C25.8307 36.8777 26.9183 36.7988 28.1211 36.0921C27.6245 35.8259 27.2997 35.6515 26.9768 35.4771L27.0807 35.1283C29.0463 34.6363 31.012 34.1444 33.1815 33.601C32.8341 33.2412 32.6925 33.0503 32.5074 32.9108C31.6672 32.2719 31.6898 32.1031 32.7132 31.6808C33.3193 31.4312 33.967 31.2531 34.5221 30.9245C34.7714 30.7758 35.049 30.1884 34.9489 30.0507C34.4674 29.3899 34.7884 28.9897 35.2548 28.5509C35.4983 28.3215 35.791 28.0682 35.8873 27.7726C36.7106 25.2448 37.1581 22.6638 36.6369 20.0222C34.7128 10.2966 24.3201 5.32919 15.1963 9.75142C8.92364 12.7914 5.71557 20.4041 7.97953 26.8786C8.14003 27.3357 8.4818 27.791 8.46481 28.237C8.43271 29.0796 8.82168 29.5129 9.5222 29.8818C10.8647 30.5904 10.8496 30.6161 9.9395 31.7836C9.91118 31.8204 9.93572 31.8993 9.93572 32.0315C11.1536 33.0154 13.0305 32.6942 14.3485 33.8451C13.8387 34.2049 13.4421 34.484 12.8152 34.9264L12.819 34.93Z" fill="#0E2CE2"/>
</svg>
