<svg width="40" height="40" viewBox="0 0 40 40" fill="none" xmlns="http://www.w3.org/2000/svg">
<path d="M36.6401 29.7887C36.142 31.2807 40.2055 31.09 39.9412 32.1956C39.7201 33.1106 34.2741 32.9988 33.3466 33.7333C32.3123 34.5543 34.9908 34.9863 35.1153 35.5074C35.1737 35.9293 34.8078 36.0284 34.5028 36.1631C33.1026 36.7756 27.3212 36.5342 26.7342 37.162C26.4292 37.4873 26.7697 37.6093 27.0493 37.7287C27.5245 37.9295 30.8866 38.1405 30.2869 38.9335C27.5677 40.3593 10.5717 40.3517 9.20445 38.9335L9.52211 38.3667L12.9554 37.7338L13.2705 37.1594C12.8232 36.7706 6.44971 36.796 4.99101 36.1657C4.70893 36.0437 4.29216 35.9166 4.38111 35.5099L6.66572 34.3586C6.75974 33.7613 6.17271 33.5427 5.71274 33.4105C4.73943 33.131 0.269327 33.0928 0.0634841 32.1982C0.538702 30.9655 2.404 31.2578 3.10539 30.1674C2.47769 29.2397 1.27059 29.283 0.386226 28.828C0.160052 28.7111 -0.0356258 28.8865 0.0558601 28.3832C0.0228235 27.8164 0.764876 27.7961 0.950389 27.4987C1.36208 26.843 0.160053 22.9747 0.0660254 21.775C-1.02926 7.85714 11.6771 -2.8634 25.2069 0.684699C34.4851 3.11702 40.6121 11.9822 39.9513 21.5336C39.8548 22.9137 38.6705 26.6549 39.0568 27.4911C39.222 27.8495 40.0454 28.1926 39.9412 28.6348L36.6401 29.7862V29.7887ZM33.8447 15.2964C31.9285 8.27142 24.3276 4.09555 17.2755 5.45277C9.30102 6.9879 3.9618 14.7043 5.46115 22.7281C5.68733 23.9405 6.37347 26.4821 7.49925 27.0413C8.87917 27.73 14.8918 27.697 16.3759 27.1709C16.5919 27.0946 16.8257 26.998 16.8257 26.7337L11.7457 26.2203C11.6263 25.4934 11.8982 25.7984 12.3328 25.6789C14.5843 25.0588 24.602 25.2443 27.3771 25.4477C27.9413 25.4883 28.4622 25.6637 29.0162 25.7145C28.9171 26.1924 28.5156 26.1746 28.1344 26.2254C25.1281 26.6346 22.0862 26.2356 19.1103 26.7286C18.5665 27.2471 20.3124 27.4352 20.5385 27.4581C20.8969 27.4937 26.0074 27.514 25.461 28.2485C21.0315 29.3185 16.3556 28.3781 11.8626 28.7518C11.1816 28.8077 9.99733 28.8915 9.7127 29.5193C10.1218 30.0683 17.9337 29.9412 19.2044 30.0632C22.076 30.3403 21.3035 31.1333 18.9909 31.3112C15.1663 31.606 11.1587 31.1663 7.42556 32.0686C6.99608 32.6353 11.4128 33.0674 11.8601 33.0928C16.5081 33.3673 22.9832 33.3648 27.6312 33.0928C28.8612 33.0217 30.0836 32.7268 31.3008 32.5693C31.8625 31.9364 29.7049 31.5984 29.3949 31.5577C27.5982 31.3239 25.2221 31.6899 23.6872 30.6656C23.677 29.8091 32.0403 30.0632 33.0797 29.5193C33.9209 28.5942 29.0467 28.5281 28.6884 28.4493C28.3301 28.3705 27.8447 28.1265 27.7456 27.7427C32.1166 26.9675 33.7455 27.3208 34.5715 22.4994C34.7748 21.3125 34.9577 17.6627 34.3682 16.7274C33.8701 15.9344 29.184 16.5063 27.9972 16.0488C28.0836 15.5938 29.8676 15.2888 30.1573 15.2888H33.8396L33.8447 15.2964ZM27.494 34.8694C27.0061 34.3382 16.8613 34.2696 15.4179 34.3484C14.6072 34.3916 12.5056 34.5924 11.8448 34.8389C10.5767 35.3142 12.9477 35.7997 13.4255 35.8556C16.7038 36.2419 23.3949 36.5088 26.4953 35.7717C26.9578 35.6624 27.5982 35.4743 27.494 34.8669V34.8694ZM17.0799 19.1114C17.0799 19.3402 17.3086 19.5054 17.5144 19.5613C18.5462 19.8485 21.2272 19.7138 22.5461 19.8688C22.9019 19.9095 23.2907 20.0264 22.9223 20.3746C20.043 20.827 17.0646 20.555 14.1472 20.8753C13.7686 20.916 13.3645 20.9312 13.2705 21.3912C17.6516 22.2173 22.2005 21.958 26.6071 21.6505C27.7202 21.5717 29.1967 21.9784 30.0277 21.2667C30.0251 20.5957 25.1637 20.7533 24.4445 20.3746C24.386 19.7062 24.4165 19.9552 24.8282 19.879C25.771 19.7036 27.4127 19.8841 27.9997 19.1114C26.7189 18.7429 17.4051 18.6692 17.0773 19.1114H17.0799ZM29.156 22.9111C23.9947 22.5883 15.9668 22.5223 10.8461 22.9111C10.1727 22.962 8.79784 23.0407 8.44207 23.6787C9.32135 23.8617 10.193 24.1336 11.1002 24.1997C16.2514 24.5759 24.5029 24.5657 29.6617 24.1997C30.3733 24.1489 31.9285 24.0599 32.3173 23.4296C31.3135 23.2492 30.1649 22.9721 29.1535 22.9086L29.156 22.9111ZM23.8117 17.0756C23.7736 17.0756 23.2221 17.3196 23.1738 17.4568C23.1738 17.5661 23.7634 17.8381 23.8117 17.8381H30.9247C30.973 17.8381 31.3771 17.4289 31.3059 17.3323C31.034 17.406 30.8002 17.0959 30.6706 17.0756C28.8866 16.8011 25.771 17.0756 23.8117 17.0756ZM33.8447 19.6172C33.987 19.0402 33.621 19.0174 33.1509 18.9259C32.0226 18.7022 30.6274 18.8115 29.527 19.114C29.4635 19.2004 29.8167 19.5969 29.9082 19.6197C30.8866 19.8688 32.7443 19.4367 33.8447 19.6197V19.6172Z" fill="#0E2CE2"/>
</svg>
