<svg width="44" height="44" viewBox="0 0 44 44" fill="none" xmlns="http://www.w3.org/2000/svg">
<path d="M4.92017 26.0554C4.25413 27.1345 4.37416 28.3107 5.36079 29.4663C6.55674 30.8675 8.15086 31.6673 9.81377 32.3303C13.2084 33.6844 16.7714 34.2799 20.3929 34.3769C22.8726 34.4446 25.3597 34.2093 27.8424 34.1079C28.0575 34.099 28.2713 34.0785 28.5391 34.0593C28.6211 34.5504 28.6972 35.0003 28.7909 35.559C27.9975 35.6443 27.2378 35.7384 26.4751 35.806C20.8994 36.3 15.4144 35.8942 10.0817 34.0829C8.27089 33.4683 6.54942 32.6523 5.08998 31.3791C3.85304 30.2999 2.8708 29.0385 3.01719 27.2874C3.08013 26.5347 3.45048 25.8098 3.65396 25.0644C3.71544 24.838 3.77399 24.5381 3.67738 24.3528C2.57365 22.2239 2.8064 20.392 4.46638 18.6409C5.86142 17.1677 7.61509 16.2606 9.48002 15.5608C14.5756 13.648 19.8703 13.1922 25.2514 13.5054C29.4409 13.7494 33.5367 14.4772 37.3397 16.3694C38.2707 16.8325 39.1256 17.4486 40.0449 18.0117C40.6289 16.9854 40.5865 15.971 39.9322 14.9859C39.0451 13.6495 37.732 12.8482 36.3282 12.1924C32.1987 10.2635 27.794 9.63863 23.3001 9.58865C21.0385 9.56365 18.7754 9.74596 16.4201 9.83859C16.3571 9.49014 16.2737 9.02407 16.1712 8.45215C17.231 8.33012 18.2323 8.16986 19.2394 8.10664C23.7949 7.82142 28.3093 8.07724 32.7403 9.25343C35.2069 9.90769 37.59 10.7781 39.6116 12.4012C41.0095 13.523 42.1147 14.8712 41.9552 16.809C41.8966 17.5162 41.5351 18.194 41.3477 18.8953C41.2833 19.1393 41.2335 19.4657 41.3404 19.6657C42.387 21.6285 42.1967 23.4839 40.708 25.16C39.2178 26.8375 37.2826 27.8241 35.2201 28.5518C29.6429 30.5219 23.8944 30.9248 18.0464 30.3514C14.8508 30.0382 11.7168 29.4472 8.77006 28.1328C7.44529 27.5418 6.20688 26.7537 4.9231 26.0524L4.92017 26.0554ZM22.4467 20.2847C22.3222 20.3214 22.2534 20.3567 22.1832 20.3596C21.501 20.3905 20.8189 20.4111 20.1367 20.4464C16.4376 20.6316 12.8205 21.23 9.37901 22.665C8.1772 23.1663 7.01199 23.75 6.00048 24.741C6.47184 25.0762 6.85243 25.3805 7.26231 25.6363C9.68642 27.1433 12.3799 27.8961 15.1509 28.396C19.6273 29.2031 24.1228 29.2458 28.6226 28.5959C31.5561 28.1725 34.4106 27.4624 37.0455 26.0421C38.1946 25.4231 39.2544 24.6836 39.979 23.5589C40.648 22.518 40.6275 21.3741 39.957 20.6155C34.7107 24.3455 28.706 25.0335 22.5477 25.2041V23.5251C23.6265 23.5251 24.6541 23.5898 25.67 23.5133C29.334 23.2384 32.9321 22.6179 36.2828 21.0124C37.2109 20.5669 38.0672 19.9686 39.0421 19.3893C38.7538 19.132 38.622 18.9953 38.4713 18.882C36.8435 17.6647 34.9888 16.9266 33.0624 16.3635C28.7748 15.1079 24.3833 14.8315 19.9508 15.0565C16.3278 15.2403 12.7766 15.8431 9.41268 17.2662C7.6956 17.9925 6.03854 18.8497 4.99483 20.5067C4.39905 21.4506 4.38002 22.4312 4.95238 23.428C10.2251 19.6686 16.2385 18.9761 22.4481 18.8056V20.2876L22.4467 20.2847Z" fill="#0E2CE2"/>
</svg>
