<svg width="44" height="44" viewBox="0 0 44 44" fill="none" xmlns="http://www.w3.org/2000/svg">
<g clip-path="url(#clip0_733_206)">
<path d="M21.1866 43.962C20.1327 43.8804 19.0975 43.7019 18.0962 43.3544C17.3166 43.0829 16.5801 42.7279 15.9207 42.2228C15.4699 41.8791 15.0735 41.4842 14.7804 40.9924C14.1774 39.9823 14.1774 38.9665 14.7804 37.9564C15.111 37.4058 15.5657 36.9748 16.0842 36.6083C16.8169 36.0881 17.6247 35.7311 18.4794 35.4729C19.7419 35.0913 21.0344 34.947 22.3494 34.9792C23.6664 35.0115 24.9457 35.2356 26.1819 35.7007C26.8093 35.9362 27.4011 36.24 27.9478 36.633C28.3855 36.9482 28.7725 37.3146 29.0862 37.757C29.8565 38.8412 29.8584 40.0905 29.0975 41.1823C28.7744 41.6437 28.3705 42.0215 27.914 42.3443C26.9709 43.0108 25.9151 43.4095 24.803 43.6715C24.1266 43.8291 23.4391 43.9183 22.7477 43.9677C22.6688 43.9734 22.5899 43.9905 22.511 44.0038H21.5905C21.4571 43.9905 21.3218 43.9791 21.1884 43.9658L21.1866 43.962Z" fill="#0E2CE2"/>
<path d="M22.8323 1.03399C24.3371 1.13462 25.7855 1.4612 27.1325 2.16751C27.8238 2.53017 28.4494 2.98586 28.9416 3.60484C29.2854 4.03774 29.5296 4.51811 29.6235 5.06874C29.7475 5.80354 29.5634 6.46998 29.1764 7.09086C28.9435 7.46491 28.6467 7.78199 28.3123 8.0649C27.604 8.66679 26.7906 9.07881 25.9208 9.3826C24.957 9.71867 23.9651 9.90854 22.9506 9.98259C21.4402 10.0908 19.9561 9.95601 18.502 9.525C17.6209 9.26298 16.7887 8.89273 16.0372 8.3497C15.5168 7.97376 15.0622 7.53326 14.7391 6.96744C14.1586 5.94974 14.1905 4.93773 14.8067 3.9485C15.1787 3.35041 15.6934 2.89472 16.2758 2.51308C17.1588 1.93207 18.13 1.57322 19.1483 1.33019C19.8039 1.17449 20.4708 1.07956 21.1434 1.03589C21.2636 1.02449 21.3857 1.0131 21.5059 1.00171C21.8253 1.00171 22.1466 1.00171 22.4659 1.00171C22.588 1.0131 22.7083 1.02449 22.8304 1.03589L22.8323 1.03399Z" fill="#0E2CE2"/>
<path d="M12.8604 34.0944C12.8942 34.8368 12.7909 35.5583 12.4997 36.2456C12.1841 36.9861 11.6919 37.5576 10.9348 37.8614C10.3543 38.0949 9.75313 38.1101 9.14633 37.9943C8.41554 37.8538 7.75238 37.5443 7.13055 37.1418C6.05973 36.4526 5.18052 35.5583 4.42907 34.533C3.32631 33.0311 2.54667 31.3773 2.17658 29.5375C1.98496 28.5786 1.92672 27.616 2.11458 26.6495C2.21227 26.1502 2.37008 25.6736 2.64248 25.2407C3.18916 24.3749 3.97068 23.9268 4.99078 23.9097C5.6577 23.8983 6.28328 24.073 6.88445 24.3464C7.71481 24.7224 8.44748 25.2483 9.09749 25.8844C10.9705 27.7128 12.1935 29.9115 12.727 32.4919C12.789 32.7938 12.8285 33.1032 12.8566 33.4108C12.8773 33.6368 12.8604 33.8684 12.8604 34.0963V34.0944Z" fill="#0E2CE2"/>
<path d="M12.8717 10.917C12.8811 12.1683 12.5936 13.3607 12.1409 14.5151C11.4514 16.2733 10.4463 17.8226 9.07868 19.1214C8.38547 19.7821 7.61898 20.3365 6.73414 20.7087C6.18746 20.9384 5.62199 21.0884 5.02646 21.0808C3.93497 21.0675 3.11212 20.5796 2.5692 19.6207C2.24607 19.0492 2.0939 18.4245 2.03191 17.7752C1.91543 16.5106 2.13335 15.2917 2.53162 14.1012C3.19666 12.1075 4.27124 10.3683 5.78167 8.91391C6.4918 8.23038 7.27895 7.66077 8.19197 7.28293C8.72738 7.06078 9.2797 6.92597 9.86208 6.92977C10.9949 6.93736 11.8196 7.4614 12.3588 8.45633C12.6857 9.05822 12.8247 9.71517 12.8679 10.393C12.8792 10.5677 12.8679 10.7424 12.8679 10.917H12.8717Z" fill="#0E2CE2"/>
<path d="M41.9719 17.1295C41.9925 17.7807 41.9117 18.4206 41.6919 19.0358C41.5323 19.4839 41.3049 19.8921 40.9781 20.2396C40.4577 20.7902 39.8133 21.056 39.0694 21.0826C38.3686 21.1073 37.7111 20.9212 37.078 20.6288C36.2627 20.2528 35.5432 19.7326 34.9007 19.106C33.0502 17.3042 31.8347 15.1377 31.2899 12.5954C31.0964 11.6878 31.0363 10.7688 31.1866 9.84604C31.3068 9.10934 31.5492 8.42391 32.0451 7.85429C32.5411 7.28278 33.1723 6.98659 33.9181 6.93912C34.6546 6.89165 35.3459 7.07393 36.0109 7.37962C36.7211 7.70619 37.3636 8.1391 37.9365 8.66884C40.0293 10.5979 41.3557 12.9637 41.8742 15.7833C41.9211 16.0415 41.9474 16.3035 41.9681 16.5656C41.9831 16.7535 41.9719 16.9415 41.9719 17.1314V17.1295Z" fill="#0E2CE2"/>
<path d="M42.0001 27.8913C41.9794 29.0172 41.7502 30.0995 41.3688 31.1495C40.685 33.0387 39.6461 34.7001 38.1939 36.0842C37.4162 36.8266 36.552 37.438 35.5357 37.8026C34.9702 38.0057 34.3878 38.112 33.7866 38.0418C32.8041 37.926 32.0959 37.3981 31.63 36.5285C31.3501 36.0064 31.2092 35.4387 31.1453 34.852C31.0194 33.6862 31.1885 32.5526 31.5229 31.4419C32.171 29.2982 33.2832 27.4375 34.8913 25.8901C35.6352 25.1724 36.4675 24.5819 37.435 24.2097C37.9366 24.016 38.4551 23.9002 38.9961 23.9097C40.0575 23.9287 40.8579 24.4053 41.397 25.3262C41.707 25.8559 41.8686 26.4388 41.9362 27.0464C41.9681 27.3274 41.9775 27.6103 41.9963 27.8913H42.0001Z" fill="#0E2CE2"/>
</g>
<defs>
<clipPath id="clip0_733_206">
<rect width="40" height="43" fill="white" transform="translate(2 1)"/>
</clipPath>
</defs>
</svg>
